<?xml version="1.0" encoding="UTF-8"?>
<svg id="Layer_1" data-name="Layer 1" xmlns="http://www.w3.org/2000/svg" viewBox="0 0 1603 198"><title>Logo-01</title><path d="M19.42,107.16l-9,51.93H.38L22.58,31.37,58,31.46q15.34.52,23.1,10.66T87.4,68.91q-1.58,17.73-12.54,28t-28.6,10.32ZM21,97.77,46.7,98q12.63,0,21-7.81T77.49,69q1.41-12.36-3.86-20t-16-8.07l-26.75-.09Z"/><path d="M121.33,160.84q-15.35-.26-22.89-12t-5.35-31l1-8.77q2.73-22.28,13.42-34.69t26.84-12q11.49.36,17.94,7.5t7.24,19.69a80,80,0,0,1-.44,14.57L158,112.51H103.7l-.87,5.44a56.91,56.91,0,0,0-.44,11.49q.44,10.09,5.61,16.14t14.12,6.31a26.82,26.82,0,0,0,12.77-2.63,43.57,43.57,0,0,0,10.65-7.54l4.57,6.67Q139.22,161.19,121.33,160.84Zm12.46-89.3A23,23,0,0,0,115.37,79q-7.47,7.91-11,24.36h45.18l.44-2.62a55.84,55.84,0,0,0,.35-9.89C150.08,85,148.5,80.43,145.63,77S138.82,71.78,133.79,71.54Z"/><path d="M210.61,62.33q12.88.36,20.08,9.44t7.46,24.77a122.1,122.1,0,0,1-1.76,20.53q-3.15,20.88-13.73,32.59a32.83,32.83,0,0,1-26.44,11.27q-11.83-.36-19-8.16t-8.46-22.45l-.17-3.51q-.27-7.11,1.79-20.65a70.87,70.87,0,0,1,7.47-23.47,40.77,40.77,0,0,1,13.68-15.27A32.86,32.86,0,0,1,210.61,62.33Zm-32.28,61.78q-.27,13,4.51,20.17t14.08,7.53a23.38,23.38,0,0,0,19.17-8.29q7.75-8.7,10.48-25.71l1.49-11.13.44-7.44q.27-12.7-4.51-20.08c-3.2-4.9-7.88-7.46-14.09-7.7q-11.75-.43-19.73,9.37T179.9,108l-1.4,11.13Z"/><path d="M281,160.84a28.07,28.07,0,0,1-13.16-3.42,22.46,22.46,0,0,1-9.21-9.82l-8.59,48h-9.65l22.8-131.4,8.95-.09-2.54,13q10.51-15,25.79-14.65,22.26.36,23.77,29l.08,6a199.39,199.39,0,0,1-2.19,20.35q-3.33,21.95-12.45,32.72T281,160.84ZM308.92,107a99.55,99.55,0,0,0,.62-15.28q-1.32-19.93-17-20.2a22.38,22.38,0,0,0-13.46,4,34.4,34.4,0,0,0-10.4,11.81l-8.42,50.23q4.74,13.78,18.95,14.31,22.63.8,28.16-32.66Z"/><path d="M338.64,159.09H328.9L352.32,24.35h9.74Z"/><path d="M393.53,160.84q-15.34-.26-22.89-12t-5.35-31l1-8.77q2.73-22.28,13.42-34.69t26.84-12q11.49.36,17.94,7.5t7.24,19.69a80,80,0,0,1-.44,14.57l-1.14,8.33H375.9L375,118a56.91,56.91,0,0,0-.44,11.49q.42,10.09,5.61,16.14t14.12,6.31a26.82,26.82,0,0,0,12.77-2.63,43.57,43.57,0,0,0,10.65-7.54l4.56,6.67Q411.43,161.19,393.53,160.84ZM406,71.54A23,23,0,0,0,387.57,79q-7.47,7.91-11,24.36h45.18l.44-2.62a55.84,55.84,0,0,0,.35-9.89C422.28,85,420.7,80.43,417.83,77S411,71.78,406,71.54Z"/><path d="M446.33,63,441,58q8.58-11.58,10.61-23.25l1.84-10.44H463l-1.58,10.53A49.23,49.23,0,0,1,446.33,63Z"/><path d="M497.18,135q1.31-9.54-11.58-17l-5-2.72-8.77-4.9q-14.38-8.5-13.51-22a25.66,25.66,0,0,1,9.3-18.65q8.69-7.48,21.22-7.32,12.46.36,19.3,8t6,19.79h-9.65q.53-8.3-3.86-13.4t-12.28-5.29a20.84,20.84,0,0,0-13.77,4.4,17.64,17.64,0,0,0-6.76,12q-1.05,8.7,9.65,14.84l15.35,8.54q15,8.94,14.12,23.16a26,26,0,0,1-9.82,19.29q-9,7.38-22.1,7-12.64-.17-20.3-7.77t-6.81-19.95l9.74.09q-.36,8.74,4.3,13.57t13.5,4.94a23.84,23.84,0,0,0,14.74-4.55A17.32,17.32,0,0,0,497.18,135Z"/><path d="M644.33,116.46Q642,137.25,629,149.31t-32.76,11.53q-17-.36-26.31-11.23t-9.83-30.17a84.46,84.46,0,0,1,.7-13.25l3.25-21.14q4.11-27.1,17.86-41.49T616,29.62q17.79.25,27.36,11.8t9.57,33.46l-25.35-.09.17-8.68Q627.5,51.37,614,50.93q-10.44-.36-16.49,7.58t-8.16,25.75l-3.16,22c-.81,7-1.25,11.6-1.31,13.77Q584,139,598.19,139.61q8.85.44,14.12-4.68t7.37-18.3Z"/><path d="M686,72.6q9-10.44,19.91-10.27,10.44.18,16,7.72t5.53,21L727,99.35l-10,59.74h-24.3l9.91-60,.44-5.18q.36-10.69-7.63-10.7-5.79-.17-11.23,6.14L672,159.09h-24.3L671.07,24.35h24.21Z"/><path d="M780.43,62.42q14.39.36,22.46,9.74t8.85,25.17v6.23q-1.14,27.54-13.2,42.67T767.1,160.84q-11.33-.26-18.69-6.09c-4.91-3.9-8.43-9.28-10.57-16.19s-2.74-14.82-1.8-23.77l.53-4.74q2.53-22.36,14.3-35.22T780.43,62.42ZM759.9,124.7q0,15.17,9.3,15.7,12.63.71,16.4-19.29l1-6.32c.81-8.42,1.23-13.83,1.23-16.23q0-15.09-9.56-15.7c-4.63-.24-8.42,1.91-11.41,6.4s-4.88,11-5.7,19.53S759.9,122.6,759.9,124.7Z"/><path d="M838.92,159.09H814.63l16.49-94.91h24.3Zm-4.64-119a13.36,13.36,0,0,1,3.8-9.86,12.74,12.74,0,0,1,9.35-3.82,12.18,12.18,0,0,1,9.25,3.55,12.37,12.37,0,0,1,3.82,9.26,13.45,13.45,0,0,1-3.82,10A12.71,12.71,0,0,1,847.35,53,12.09,12.09,0,0,1,838,49.39,12.63,12.63,0,0,1,834.28,40.05Z"/><path d="M891,140.49q10,.27,12.37-14.21l22.72-.09q-1.49,15.8-11.67,25.44t-24.82,9.3q-13.25-.36-21.09-7.93t-9.35-21.19q-1.32-11.06,1.28-26.67t9.6-26q11.49-17.2,32.72-16.67,14.37.44,21.93,10.4t6.75,26.88l-22.81-.09.09-5.43c-.24-7.26-3.09-11-8.59-11.32q-12.9-.69-15.35,20l-1.67,15.9a55.23,55.23,0,0,0-.7,11.86Q883,140.22,891,140.49Z"/><path d="M969.5,160.84Q958,160.75,950,155.23a30.56,30.56,0,0,1-11.58-15.49q-3.57-9.94-2.16-22.67l.79-6.49q2.9-23.6,14.35-36.1t29.16-12.06c8.66.24,15.45,2.93,20.39,8.12s7.83,12.41,8.64,21.71a75.1,75.1,0,0,1-.35,16.31l-1.66,11.4H960.2a44,44,0,0,0-.26,7.29q.62,12.63,12.36,12.89,11,.36,21.23-8.33l8.16,15.08a32.21,32.21,0,0,1-13.46,10.35A44.35,44.35,0,0,1,969.5,160.84Zm8.68-78c-6.95-.29-11.82,4.15-14.56,13.33l-1.75,6.41,24.12.08a60,60,0,0,0,1-8.24Q987.31,83.3,978.18,82.86Z"/><path d="M1132.54,119.26q-4.05,20.79-15.35,31.41t-29,10.17q-13.59-.36-21.71-9.56t-9.51-26l-.18-5a79,79,0,0,1,.7-11.76l4.39-27.37q3.78-24.3,16.28-38.19t31.35-13.47q16.32.43,24.51,11.4t7.16,30.44h-10.09q.69-16.58-5-24.34c-3.76-5.18-9.52-7.85-17.23-8a29.56,29.56,0,0,0-24.08,10.53q-9.69,10.95-12.94,31.93l-4.47,29-.53,7.19a51.88,51.88,0,0,0,1.75,17.2q2.28,8,7.46,12.19a20.77,20.77,0,0,0,12.81,4.47q13,.63,21.31-6.71T1123,119.35Z"/><path d="M1155.15,159.09h-9.74l23.42-134.74h9.74Z"/><path d="M1223.2,62.33q12.9.36,20.09,9.44t7.45,24.77a121.93,121.93,0,0,1-1.75,20.53q-3.16,20.88-13.73,32.59a32.85,32.85,0,0,1-26.44,11.27q-11.85-.36-19-8.16t-8.46-22.45l-.18-3.51q-.26-7.11,1.8-20.65a70.87,70.87,0,0,1,7.46-23.47,40.88,40.88,0,0,1,13.69-15.27A32.83,32.83,0,0,1,1223.2,62.33Zm-32.28,61.78q-.26,13,4.51,20.17c3.2,4.78,7.88,7.29,14.09,7.53a23.41,23.41,0,0,0,19.17-8.29q7.74-8.7,10.48-25.71l1.49-11.13.44-7.44q.26-12.7-4.52-20.08t-14.08-7.7q-11.74-.43-19.74,9.37T1192.5,108l-1.4,11.13Z"/><path d="M1294.49,40l-4.21,24.21H1306L1304.49,73h-15.7l-10.53,63.15-.35,4.65q-.36,10.27,6.84,10.44l6.85-.61-.62,8.77a23.58,23.58,0,0,1-8.77,1.32c-4.32-.07-7.63-1.53-9.91-4.44s-3.54-6.9-3.77-12.06a62.13,62.13,0,0,1,.17-8.24l10.35-63h-14.21l1.49-8.77h14.21l4.3-24.21Z"/><path d="M1329.21,79.09q11.76-16.94,26.67-16.67,18.42.36,20.09,23l.17,3.95-.52,8-10.35,61.76h-9.57L1366,97.16l.44-5.7q.61-19.58-13.51-19.92-7.9-.17-15.44,6.32a32.61,32.61,0,0,0-10.26,15.26l-11.23,66h-9.74l23.42-134.74h9.74Z"/><path d="M1397.18,159.09h-9.73l16.49-94.91h9.73Zm10.09-122.28q.43-5.79,6.75-7.28,6.49,1.14,6,7.28c-.24,3.75-2.48,6.14-6.76,7.19Q1406.92,42.86,1407.27,36.81Z"/><path d="M1445.23,64.18l-3.07,15.08q11.67-17.19,26.93-16.93,17.88.36,20,21.93l.27,5.09-.53,8-10.35,61.76h-9.56l10.26-62,.44-5.71q.62-19.58-13.59-19.93-7.82-.18-15.36,6.33a32.79,32.79,0,0,0-10.26,15.27l-11.23,66h-9.73l16.49-94.91Z"/><path d="M1542,62.42a24.55,24.55,0,0,1,13.33,4.13,23.63,23.63,0,0,1,8.51,11L1567,64.18h9l-16.58,97.19q-2.46,17.53-11.93,26.79T1523.11,197a33.78,33.78,0,0,1-25.79-13.68l5.35-6.85q8.25,11.06,20.26,11.41,11.22.36,18-6.34t8.77-19.66l2.81-14.53q-10.26,13.95-25.17,13.6-11.85-.17-18.07-9.21t-5.7-26a155.41,155.41,0,0,1,1.93-19.65q3.24-22.11,12.36-33.07T1542,62.42Zm-28.16,53.86a97.21,97.21,0,0,0-.62,15q.88,20.1,16.58,20.35,14.74.36,24-15L1561.88,88q-4.22-15.63-18.51-16.23-23-.8-28.16,33.68Z"/></svg>